<mxfile host="65bd71144e">
    <diagram id="b9qi3Db3O154psMGoR-O" name="Page-1">
        <mxGraphModel dx="3496" dy="2239" grid="1" gridSize="10" guides="1" tooltips="1" connect="1" arrows="1" fold="1" page="1" pageScale="1" pageWidth="850" pageHeight="1100" math="0" shadow="0">
            <root>
                <mxCell id="0"/>
                <mxCell id="1" parent="0"/>
                <mxCell id="356" value="" style="verticalLabelPosition=bottom;verticalAlign=top;html=1;shape=mxgraph.basic.rect;fillColor2=none;strokeWidth=1;size=20;indent=5;" vertex="1" parent="1">
                    <mxGeometry x="-1680" y="1305" width="100" height="385" as="geometry"/>
                </mxCell>
                <mxCell id="351" value="" style="verticalLabelPosition=bottom;verticalAlign=top;html=1;shape=mxgraph.basic.rect;fillColor2=none;strokeWidth=1;size=20;indent=5;" vertex="1" parent="1">
                    <mxGeometry x="-1670" y="230" width="100" height="390" as="geometry"/>
                </mxCell>
                <mxCell id="352" value="" style="strokeWidth=2;html=1;shape=mxgraph.flowchart.start_2;whiteSpace=wrap;" vertex="1" parent="1">
                    <mxGeometry x="-1640" y="660" width="40" height="40" as="geometry"/>
                </mxCell>
                <mxCell id="348" value="" style="verticalLabelPosition=bottom;verticalAlign=top;html=1;shape=mxgraph.basic.rect;fillColor2=none;strokeWidth=1;size=20;indent=5;" vertex="1" parent="1">
                    <mxGeometry x="-740" y="200" width="100" height="430" as="geometry"/>
                </mxCell>
                <mxCell id="345" value="" style="verticalLabelPosition=bottom;verticalAlign=top;html=1;shape=mxgraph.basic.rect;fillColor2=none;strokeWidth=1;size=20;indent=5;" vertex="1" parent="1">
                    <mxGeometry x="-450" y="200" width="100" height="430" as="geometry"/>
                </mxCell>
                <mxCell id="321" value="" style="verticalLabelPosition=bottom;verticalAlign=top;html=1;shape=mxgraph.basic.rect;fillColor2=none;strokeWidth=1;size=20;indent=5;" vertex="1" parent="1">
                    <mxGeometry x="-450" y="1305" width="100" height="585" as="geometry"/>
                </mxCell>
                <mxCell id="317" value="" style="verticalLabelPosition=bottom;verticalAlign=top;html=1;shape=mxgraph.basic.rect;fillColor2=none;strokeWidth=1;size=20;indent=5;" parent="1" vertex="1">
                    <mxGeometry x="-1370" y="1305" width="100" height="255" as="geometry"/>
                </mxCell>
                <mxCell id="313" value="" style="verticalLabelPosition=bottom;verticalAlign=top;html=1;shape=mxgraph.basic.rect;fillColor2=none;strokeWidth=1;size=20;indent=5;" parent="1" vertex="1">
                    <mxGeometry x="-910" y="1305" width="100" height="625" as="geometry"/>
                </mxCell>
                <mxCell id="64" value="" style="shape=table;startSize=30;container=1;collapsible=0;childLayout=tableLayout;fontStyle=1;align=center;" parent="1" vertex="1">
                    <mxGeometry x="210" y="70" width="490" height="188" as="geometry"/>
                </mxCell>
                <mxCell id="65" value="" style="shape=tableRow;horizontal=0;startSize=0;swimlaneHead=0;swimlaneBody=0;top=0;left=0;bottom=0;right=0;collapsible=0;dropTarget=0;fillColor=none;points=[[0,0.5],[1,0.5]];portConstraint=eastwest;" parent="64" vertex="1">
                    <mxGeometry y="30" width="490" height="30" as="geometry"/>
                </mxCell>
                <mxCell id="66" value="Controller" style="shape=partialRectangle;html=1;whiteSpace=wrap;connectable=0;fillColor=none;top=0;left=0;bottom=0;right=0;overflow=hidden;" parent="65" vertex="1">
                    <mxGeometry width="164" height="30" as="geometry">
                        <mxRectangle width="164" height="30" as="alternateBounds"/>
                    </mxGeometry>
                </mxCell>
                <mxCell id="67" value="Business Logic" style="shape=partialRectangle;html=1;whiteSpace=wrap;connectable=0;fillColor=none;top=0;left=0;bottom=0;right=0;overflow=hidden;" parent="65" vertex="1">
                    <mxGeometry x="164" width="162" height="30" as="geometry">
                        <mxRectangle width="162" height="30" as="alternateBounds"/>
                    </mxGeometry>
                </mxCell>
                <mxCell id="68" value="Model" style="shape=partialRectangle;html=1;whiteSpace=wrap;connectable=0;fillColor=none;top=0;left=0;bottom=0;right=0;overflow=hidden;" parent="65" vertex="1">
                    <mxGeometry x="326" width="164" height="30" as="geometry">
                        <mxRectangle width="164" height="30" as="alternateBounds"/>
                    </mxGeometry>
                </mxCell>
                <mxCell id="69" value="" style="shape=tableRow;horizontal=0;startSize=0;swimlaneHead=0;swimlaneBody=0;top=0;left=0;bottom=0;right=0;collapsible=0;dropTarget=0;fillColor=none;points=[[0,0.5],[1,0.5]];portConstraint=eastwest;" parent="64" vertex="1">
                    <mxGeometry y="60" width="490" height="128" as="geometry"/>
                </mxCell>
                <mxCell id="70" value="" style="shape=partialRectangle;html=1;whiteSpace=wrap;connectable=0;fillColor=none;top=0;left=0;bottom=0;right=0;overflow=hidden;" parent="69" vertex="1">
                    <mxGeometry width="164" height="128" as="geometry">
                        <mxRectangle width="164" height="128" as="alternateBounds"/>
                    </mxGeometry>
                </mxCell>
                <mxCell id="71" value="" style="shape=partialRectangle;html=1;whiteSpace=wrap;connectable=0;fillColor=none;top=0;left=0;bottom=0;right=0;overflow=hidden;" parent="69" vertex="1">
                    <mxGeometry x="164" width="162" height="128" as="geometry">
                        <mxRectangle width="162" height="128" as="alternateBounds"/>
                    </mxGeometry>
                </mxCell>
                <mxCell id="72" value="" style="shape=partialRectangle;html=1;whiteSpace=wrap;connectable=0;fillColor=none;top=0;left=0;bottom=0;right=0;overflow=hidden;" parent="69" vertex="1">
                    <mxGeometry x="326" width="164" height="128" as="geometry">
                        <mxRectangle width="164" height="128" as="alternateBounds"/>
                    </mxGeometry>
                </mxCell>
                <mxCell id="77" value="Actor" style="shape=umlActor;verticalLabelPosition=bottom;verticalAlign=top;html=1;outlineConnect=0;" parent="1" vertex="1">
                    <mxGeometry x="90" y="130" width="30" height="60" as="geometry"/>
                </mxCell>
                <mxCell id="78" value="ASD" style="shape=note2;boundedLbl=1;whiteSpace=wrap;html=1;size=25;verticalAlign=top;align=center;" parent="1" vertex="1">
                    <mxGeometry x="10" y="10" width="120" height="60" as="geometry"/>
                </mxCell>
                <mxCell id="80" value="Flowchart&lt;br&gt;(Product Order)" style="shape=note2;boundedLbl=1;whiteSpace=wrap;html=1;size=25;verticalAlign=top;align=center;" parent="1" vertex="1">
                    <mxGeometry x="-1380" y="20" width="120" height="70" as="geometry"/>
                </mxCell>
                <mxCell id="84" style="edgeStyle=none;html=1;exitX=0.5;exitY=1;exitDx=0;exitDy=0;exitPerimeter=0;entryX=0.5;entryY=0;entryDx=0;entryDy=0;" parent="1" source="81" target="83" edge="1">
                    <mxGeometry relative="1" as="geometry"/>
                </mxCell>
                <mxCell id="81" value="" style="strokeWidth=2;html=1;shape=mxgraph.flowchart.start_2;whiteSpace=wrap;" parent="1" vertex="1">
                    <mxGeometry x="-1330" y="130" width="40" height="40" as="geometry"/>
                </mxCell>
                <mxCell id="116" value="" style="edgeStyle=orthogonalEdgeStyle;html=1;" parent="1" source="83" target="90" edge="1">
                    <mxGeometry relative="1" as="geometry"/>
                </mxCell>
                <mxCell id="83" value="Initialisatie" style="whiteSpace=wrap;html=1;align=center;" parent="1" vertex="1">
                    <mxGeometry x="-1360" y="210" width="100" height="40" as="geometry"/>
                </mxCell>
                <mxCell id="102" value="" style="edgeStyle=orthogonalEdgeStyle;html=1;" parent="1" source="85" target="101" edge="1">
                    <mxGeometry relative="1" as="geometry"/>
                </mxCell>
                <mxCell id="85" value="Voeg producten toe aan winkelmand" style="whiteSpace=wrap;html=1;align=center;" parent="1" vertex="1">
                    <mxGeometry x="-1230" y="270" width="120" height="50" as="geometry"/>
                </mxCell>
                <mxCell id="113" style="edgeStyle=orthogonalEdgeStyle;html=1;exitX=0.5;exitY=1;exitDx=0;exitDy=0;entryX=0.5;entryY=0;entryDx=0;entryDy=0;" parent="1" source="88" target="94" edge="1">
                    <mxGeometry relative="1" as="geometry"/>
                </mxCell>
                <mxCell id="88" value="Fill in adress information" style="whiteSpace=wrap;html=1;align=center;fillColor=rgb(24, 20, 29);" parent="1" vertex="1">
                    <mxGeometry x="-1220" y="595" width="100" height="40" as="geometry"/>
                </mxCell>
                <mxCell id="90" value="Account check" style="whiteSpace=wrap;html=1;align=center;" parent="1" vertex="1">
                    <mxGeometry x="-1360" y="280" width="100" height="40" as="geometry"/>
                </mxCell>
                <mxCell id="105" value="" style="edgeStyle=orthogonalEdgeStyle;html=1;" parent="1" source="93" target="97" edge="1">
                    <mxGeometry relative="1" as="geometry"/>
                </mxCell>
                <mxCell id="109" value="" style="edgeStyle=orthogonalEdgeStyle;html=1;" parent="1" source="93" target="108" edge="1">
                    <mxGeometry relative="1" as="geometry"/>
                </mxCell>
                <mxCell id="93" value="Naar Afrekenen" style="whiteSpace=wrap;html=1;align=center;" parent="1" vertex="1">
                    <mxGeometry x="-1220" y="435" width="100" height="40" as="geometry"/>
                </mxCell>
                <mxCell id="114" value="" style="edgeStyle=orthogonalEdgeStyle;html=1;" parent="1" source="94" target="98" edge="1">
                    <mxGeometry relative="1" as="geometry"/>
                </mxCell>
                <mxCell id="94" value="Betalen" style="whiteSpace=wrap;html=1;align=center;" parent="1" vertex="1">
                    <mxGeometry x="-1220" y="675" width="100" height="40" as="geometry"/>
                </mxCell>
                <mxCell id="96" value="Update voorraad" style="whiteSpace=wrap;html=1;align=center;" parent="1" vertex="1">
                    <mxGeometry x="-1220" y="825" width="100" height="40" as="geometry"/>
                </mxCell>
                <mxCell id="107" value="" style="edgeStyle=orthogonalEdgeStyle;html=1;" parent="1" source="97" target="106" edge="1">
                    <mxGeometry relative="1" as="geometry"/>
                </mxCell>
                <mxCell id="97" value="Items ophalen" style="whiteSpace=wrap;html=1;align=center;" parent="1" vertex="1">
                    <mxGeometry x="-1085" y="435" width="100" height="40" as="geometry"/>
                </mxCell>
                <mxCell id="115" value="" style="edgeStyle=orthogonalEdgeStyle;html=1;" parent="1" source="98" target="96" edge="1">
                    <mxGeometry relative="1" as="geometry"/>
                </mxCell>
                <mxCell id="98" value="Betaling check" style="whiteSpace=wrap;html=1;align=center;" parent="1" vertex="1">
                    <mxGeometry x="-1220" y="745" width="100" height="40" as="geometry"/>
                </mxCell>
                <mxCell id="104" value="" style="edgeStyle=orthogonalEdgeStyle;html=1;" parent="1" source="101" target="93" edge="1">
                    <mxGeometry relative="1" as="geometry"/>
                </mxCell>
                <mxCell id="101" value="Reserveer producten" style="whiteSpace=wrap;html=1;align=center;" parent="1" vertex="1">
                    <mxGeometry x="-1220" y="355" width="100" height="40" as="geometry"/>
                </mxCell>
                <mxCell id="106" value="Regel totaal berekenen" style="whiteSpace=wrap;html=1;align=center;fillColor=rgb(24, 20, 29);" parent="1" vertex="1">
                    <mxGeometry x="-1085" y="515" width="100" height="40" as="geometry"/>
                </mxCell>
                <mxCell id="111" style="edgeStyle=orthogonalEdgeStyle;html=1;exitX=0.5;exitY=1;exitDx=0;exitDy=0;entryX=0.5;entryY=0;entryDx=0;entryDy=0;" parent="1" source="108" target="88" edge="1">
                    <mxGeometry relative="1" as="geometry"/>
                </mxCell>
                <mxCell id="108" value="Factuur totaal berekenen" style="whiteSpace=wrap;html=1;align=center;" parent="1" vertex="1">
                    <mxGeometry x="-1220" y="515" width="100" height="40" as="geometry"/>
                </mxCell>
                <mxCell id="117" value="Flowchart&lt;br&gt;(Product toevoegen aan winkelmand)" style="shape=note2;boundedLbl=1;whiteSpace=wrap;html=1;size=25;verticalAlign=top;align=center;" parent="1" vertex="1">
                    <mxGeometry x="-1680" y="20" width="130" height="80" as="geometry"/>
                </mxCell>
                <mxCell id="137" style="edgeStyle=none;html=1;exitX=0.5;exitY=1;exitDx=0;exitDy=0;exitPerimeter=0;entryX=0.5;entryY=0;entryDx=0;entryDy=0;" parent="1" source="138" target="140" edge="1">
                    <mxGeometry relative="1" as="geometry"/>
                </mxCell>
                <mxCell id="138" value="" style="strokeWidth=2;html=1;shape=mxgraph.flowchart.start_2;whiteSpace=wrap;" parent="1" vertex="1">
                    <mxGeometry x="-1640" y="150" width="40" height="40" as="geometry"/>
                </mxCell>
                <mxCell id="139" value="" style="edgeStyle=orthogonalEdgeStyle;html=1;" parent="1" source="140" target="141" edge="1">
                    <mxGeometry relative="1" as="geometry"/>
                </mxCell>
                <mxCell id="140" value="Initialisatie" style="whiteSpace=wrap;html=1;align=center;" parent="1" vertex="1">
                    <mxGeometry x="-1670" y="230" width="100" height="40" as="geometry"/>
                </mxCell>
                <mxCell id="144" value="" style="edgeStyle=orthogonalEdgeStyle;html=1;" parent="1" source="141" target="143" edge="1">
                    <mxGeometry relative="1" as="geometry"/>
                </mxCell>
                <mxCell id="148" value="" style="edgeStyle=orthogonalEdgeStyle;html=1;" parent="1" source="141" target="147" edge="1">
                    <mxGeometry relative="1" as="geometry"/>
                </mxCell>
                <mxCell id="141" value="Account check" style="whiteSpace=wrap;html=1;align=center;" parent="1" vertex="1">
                    <mxGeometry x="-1670" y="300" width="100" height="40" as="geometry"/>
                </mxCell>
                <mxCell id="353" value="" style="edgeStyle=orthogonalEdgeStyle;rounded=0;html=1;startArrow=none;startFill=0;" edge="1" parent="1" source="142" target="352">
                    <mxGeometry relative="1" as="geometry"/>
                </mxCell>
                <mxCell id="142" value="Toon Product in winkelmand" style="whiteSpace=wrap;html=1;align=center;" parent="1" vertex="1">
                    <mxGeometry x="-1670" y="580" width="100" height="40" as="geometry"/>
                </mxCell>
                <mxCell id="146" value="" style="edgeStyle=orthogonalEdgeStyle;html=1;" parent="1" source="143" target="145" edge="1">
                    <mxGeometry relative="1" as="geometry"/>
                </mxCell>
                <mxCell id="152" value="" style="edgeStyle=orthogonalEdgeStyle;html=1;" parent="1" source="143" target="151" edge="1">
                    <mxGeometry relative="1" as="geometry"/>
                </mxCell>
                <mxCell id="143" value="Gebruiker klikt op product" style="whiteSpace=wrap;html=1;align=center;fillColor=rgb(24, 20, 29);" parent="1" vertex="1">
                    <mxGeometry x="-1670" y="370" width="100" height="40" as="geometry"/>
                </mxCell>
                <mxCell id="150" value="" style="edgeStyle=orthogonalEdgeStyle;html=1;" parent="1" source="145" target="149" edge="1">
                    <mxGeometry relative="1" as="geometry"/>
                </mxCell>
                <mxCell id="145" value="Product ophalen" style="whiteSpace=wrap;html=1;align=center;fillColor=rgb(24, 20, 29);" parent="1" vertex="1">
                    <mxGeometry x="-1530" y="370" width="100" height="40" as="geometry"/>
                </mxCell>
                <mxCell id="147" value="Klant ophalen als account ja" style="whiteSpace=wrap;html=1;align=center;fillColor=rgb(24, 20, 29);" parent="1" vertex="1">
                    <mxGeometry x="-1530" y="300" width="100" height="40" as="geometry"/>
                </mxCell>
                <mxCell id="149" value="Toon Product" style="whiteSpace=wrap;html=1;align=center;fillColor=rgb(24, 20, 29);" parent="1" vertex="1">
                    <mxGeometry x="-1530" y="440" width="100" height="40" as="geometry"/>
                </mxCell>
                <mxCell id="155" value="" style="edgeStyle=orthogonalEdgeStyle;html=1;" parent="1" source="151" target="154" edge="1">
                    <mxGeometry relative="1" as="geometry"/>
                </mxCell>
                <mxCell id="156" value="" style="edgeStyle=orthogonalEdgeStyle;html=1;" parent="1" source="151" target="142" edge="1">
                    <mxGeometry relative="1" as="geometry"/>
                </mxCell>
                <mxCell id="151" value="Gebruiker voegt product toe aan winkelmand" style="whiteSpace=wrap;html=1;align=center;fillColor=rgb(24, 20, 29);" parent="1" vertex="1">
                    <mxGeometry x="-1670" y="490" width="100" height="50" as="geometry"/>
                </mxCell>
                <mxCell id="154" value="Voeg product toe aan winkelmand lijst" style="whiteSpace=wrap;html=1;align=center;" parent="1" vertex="1">
                    <mxGeometry x="-1530" y="495" width="100" height="40" as="geometry"/>
                </mxCell>
                <mxCell id="157" value="Flowchart&lt;br&gt;(Voorraad Aanpassen)" style="shape=note2;boundedLbl=1;whiteSpace=wrap;html=1;size=25;verticalAlign=top;align=center;" parent="1" vertex="1">
                    <mxGeometry x="-840" y="25" width="120" height="85" as="geometry"/>
                </mxCell>
                <mxCell id="158" style="edgeStyle=none;html=1;exitX=0.5;exitY=1;exitDx=0;exitDy=0;exitPerimeter=0;entryX=0.5;entryY=0;entryDx=0;entryDy=0;" parent="1" source="159" target="161" edge="1">
                    <mxGeometry relative="1" as="geometry"/>
                </mxCell>
                <mxCell id="159" value="" style="strokeWidth=2;html=1;shape=mxgraph.flowchart.start_2;whiteSpace=wrap;" parent="1" vertex="1">
                    <mxGeometry x="-710" y="120" width="40" height="40" as="geometry"/>
                </mxCell>
                <mxCell id="172" value="" style="edgeStyle=none;html=1;" parent="1" source="161" target="167" edge="1">
                    <mxGeometry relative="1" as="geometry"/>
                </mxCell>
                <mxCell id="161" value="Initialisatie" style="whiteSpace=wrap;html=1;align=center;" parent="1" vertex="1">
                    <mxGeometry x="-740" y="200" width="100" height="40" as="geometry"/>
                </mxCell>
                <mxCell id="162" value="Account check" style="whiteSpace=wrap;html=1;align=center;" parent="1" vertex="1">
                    <mxGeometry x="-600" y="352" width="100" height="40" as="geometry"/>
                </mxCell>
                <mxCell id="169" value="" style="edgeStyle=orthogonalEdgeStyle;html=1;" parent="1" source="165" target="162" edge="1">
                    <mxGeometry relative="1" as="geometry"/>
                </mxCell>
                <mxCell id="165" value="Admin voert inloggegevens in" style="whiteSpace=wrap;html=1;align=center;fillColor=rgb(24, 20, 29);" parent="1" vertex="1">
                    <mxGeometry x="-600" y="280" width="100" height="40" as="geometry"/>
                </mxCell>
                <mxCell id="168" value="" style="edgeStyle=orthogonalEdgeStyle;html=1;" parent="1" source="167" target="165" edge="1">
                    <mxGeometry relative="1" as="geometry"/>
                </mxCell>
                <mxCell id="171" value="" style="edgeStyle=orthogonalEdgeStyle;html=1;" parent="1" source="167" target="170" edge="1">
                    <mxGeometry relative="1" as="geometry"/>
                </mxCell>
                <mxCell id="167" value="Admin logt in" style="whiteSpace=wrap;html=1;align=center;fillColor=rgb(24, 20, 29);" parent="1" vertex="1">
                    <mxGeometry x="-740" y="280" width="100" height="40" as="geometry"/>
                </mxCell>
                <mxCell id="174" value="" style="edgeStyle=none;html=1;" parent="1" source="170" target="173" edge="1">
                    <mxGeometry relative="1" as="geometry"/>
                </mxCell>
                <mxCell id="170" value="Admin zoekt product" style="whiteSpace=wrap;html=1;align=center;fillColor=rgb(24, 20, 29);" parent="1" vertex="1">
                    <mxGeometry x="-740" y="422" width="100" height="40" as="geometry"/>
                </mxCell>
                <mxCell id="176" value="" style="edgeStyle=none;html=1;" parent="1" source="173" target="175" edge="1">
                    <mxGeometry relative="1" as="geometry"/>
                </mxCell>
                <mxCell id="173" value="Admin past voorraad aan" style="whiteSpace=wrap;html=1;align=center;fillColor=rgb(24, 20, 29);" parent="1" vertex="1">
                    <mxGeometry x="-740" y="510" width="100" height="40" as="geometry"/>
                </mxCell>
                <mxCell id="350" value="" style="edgeStyle=orthogonalEdgeStyle;rounded=0;html=1;startArrow=none;startFill=0;" edge="1" parent="1" source="175" target="349">
                    <mxGeometry relative="1" as="geometry"/>
                </mxCell>
                <mxCell id="175" value="Voorraad aangepast" style="whiteSpace=wrap;html=1;align=center;fillColor=rgb(24, 20, 29);" parent="1" vertex="1">
                    <mxGeometry x="-740" y="595" width="100" height="40" as="geometry"/>
                </mxCell>
                <mxCell id="177" value="" style="endArrow=none;html=1;" parent="1" edge="1">
                    <mxGeometry width="50" height="50" relative="1" as="geometry">
                        <mxPoint x="-930" y="1080" as="sourcePoint"/>
                        <mxPoint x="-930" y="-10" as="targetPoint"/>
                    </mxGeometry>
                </mxCell>
                <mxCell id="178" value="" style="endArrow=none;html=1;" parent="1" edge="1">
                    <mxGeometry width="50" height="50" relative="1" as="geometry">
                        <mxPoint x="-1400" y="1070" as="sourcePoint"/>
                        <mxPoint x="-1400" y="-20" as="targetPoint"/>
                    </mxGeometry>
                </mxCell>
                <mxCell id="179" value="" style="endArrow=none;html=1;" parent="1" edge="1">
                    <mxGeometry width="50" height="50" relative="1" as="geometry">
                        <mxPoint x="-480" y="1100" as="sourcePoint"/>
                        <mxPoint x="-480" y="10" as="targetPoint"/>
                    </mxGeometry>
                </mxCell>
                <mxCell id="181" value="Flowchart&lt;br&gt;(Item Toevoegen)" style="shape=note2;boundedLbl=1;whiteSpace=wrap;html=1;size=25;verticalAlign=top;align=center;" parent="1" vertex="1">
                    <mxGeometry x="-460" y="15" width="120" height="85" as="geometry"/>
                </mxCell>
                <mxCell id="182" style="edgeStyle=none;html=1;exitX=0.5;exitY=1;exitDx=0;exitDy=0;exitPerimeter=0;entryX=0.5;entryY=0;entryDx=0;entryDy=0;" parent="1" source="183" target="185" edge="1">
                    <mxGeometry relative="1" as="geometry"/>
                </mxCell>
                <mxCell id="183" value="" style="strokeWidth=2;html=1;shape=mxgraph.flowchart.start_2;whiteSpace=wrap;" parent="1" vertex="1">
                    <mxGeometry x="-420" y="120" width="40" height="40" as="geometry"/>
                </mxCell>
                <mxCell id="184" value="" style="edgeStyle=none;html=1;" parent="1" source="185" target="191" edge="1">
                    <mxGeometry relative="1" as="geometry"/>
                </mxCell>
                <mxCell id="185" value="Initialisatie" style="whiteSpace=wrap;html=1;align=center;" parent="1" vertex="1">
                    <mxGeometry x="-450" y="200" width="100" height="40" as="geometry"/>
                </mxCell>
                <mxCell id="186" value="Account check" style="whiteSpace=wrap;html=1;align=center;" parent="1" vertex="1">
                    <mxGeometry x="-310" y="352" width="100" height="40" as="geometry"/>
                </mxCell>
                <mxCell id="187" value="" style="edgeStyle=orthogonalEdgeStyle;html=1;" parent="1" source="188" target="186" edge="1">
                    <mxGeometry relative="1" as="geometry"/>
                </mxCell>
                <mxCell id="188" value="Admin voert inloggegevens in" style="whiteSpace=wrap;html=1;align=center;fillColor=rgb(24, 20, 29);" parent="1" vertex="1">
                    <mxGeometry x="-310" y="280" width="100" height="40" as="geometry"/>
                </mxCell>
                <mxCell id="189" value="" style="edgeStyle=orthogonalEdgeStyle;html=1;" parent="1" source="191" target="188" edge="1">
                    <mxGeometry relative="1" as="geometry"/>
                </mxCell>
                <mxCell id="190" value="" style="edgeStyle=orthogonalEdgeStyle;html=1;" parent="1" source="191" target="193" edge="1">
                    <mxGeometry relative="1" as="geometry"/>
                </mxCell>
                <mxCell id="191" value="Admin logt in" style="whiteSpace=wrap;html=1;align=center;fillColor=rgb(24, 20, 29);" parent="1" vertex="1">
                    <mxGeometry x="-450" y="280" width="100" height="40" as="geometry"/>
                </mxCell>
                <mxCell id="199" value="" style="edgeStyle=none;html=1;" parent="1" source="193" target="198" edge="1">
                    <mxGeometry relative="1" as="geometry"/>
                </mxCell>
                <mxCell id="201" value="" style="edgeStyle=none;html=1;" parent="1" source="193" target="200" edge="1">
                    <mxGeometry relative="1" as="geometry"/>
                </mxCell>
                <mxCell id="193" value="Admin maakt nieuw item aan" style="whiteSpace=wrap;html=1;align=center;fillColor=rgb(24, 20, 29);" parent="1" vertex="1">
                    <mxGeometry x="-450" y="410" width="100" height="52" as="geometry"/>
                </mxCell>
                <mxCell id="347" style="edgeStyle=orthogonalEdgeStyle;rounded=0;html=1;exitX=0.5;exitY=1;exitDx=0;exitDy=0;entryX=0.5;entryY=0;entryDx=0;entryDy=0;entryPerimeter=0;startArrow=none;startFill=0;" edge="1" parent="1" source="196" target="346">
                    <mxGeometry relative="1" as="geometry"/>
                </mxCell>
                <mxCell id="196" value="Nieuw item toegevoegd" style="whiteSpace=wrap;html=1;align=center;fillColor=rgb(24, 20, 29);" parent="1" vertex="1">
                    <mxGeometry x="-450" y="595" width="100" height="40" as="geometry"/>
                </mxCell>
                <mxCell id="198" value="Nieuwe rij in database" style="whiteSpace=wrap;html=1;align=center;fillColor=rgb(24, 20, 29);" parent="1" vertex="1">
                    <mxGeometry x="-310" y="410" width="100" height="52" as="geometry"/>
                </mxCell>
                <mxCell id="202" value="" style="edgeStyle=none;html=1;" parent="1" source="200" target="196" edge="1">
                    <mxGeometry relative="1" as="geometry"/>
                </mxCell>
                <mxCell id="200" value="Admin voert gegevens in" style="whiteSpace=wrap;html=1;align=center;fillColor=rgb(24, 20, 29);" parent="1" vertex="1">
                    <mxGeometry x="-450" y="503" width="100" height="52" as="geometry"/>
                </mxCell>
                <mxCell id="203" value="Flowchart&lt;br&gt;(Item Aanpassen)" style="shape=note2;boundedLbl=1;whiteSpace=wrap;html=1;size=25;verticalAlign=top;align=center;" parent="1" vertex="1">
                    <mxGeometry x="-460" y="1120" width="120" height="85" as="geometry"/>
                </mxCell>
                <mxCell id="204" style="edgeStyle=none;html=1;exitX=0.5;exitY=1;exitDx=0;exitDy=0;exitPerimeter=0;entryX=0.5;entryY=0;entryDx=0;entryDy=0;" parent="1" source="205" target="207" edge="1">
                    <mxGeometry relative="1" as="geometry"/>
                </mxCell>
                <mxCell id="205" value="" style="strokeWidth=2;html=1;shape=mxgraph.flowchart.start_2;whiteSpace=wrap;" parent="1" vertex="1">
                    <mxGeometry x="-420" y="1225" width="40" height="40" as="geometry"/>
                </mxCell>
                <mxCell id="206" value="" style="edgeStyle=none;html=1;" parent="1" source="207" target="213" edge="1">
                    <mxGeometry relative="1" as="geometry"/>
                </mxCell>
                <mxCell id="207" value="Initialisatie" style="whiteSpace=wrap;html=1;align=center;" parent="1" vertex="1">
                    <mxGeometry x="-450" y="1305" width="100" height="40" as="geometry"/>
                </mxCell>
                <mxCell id="208" value="Account check" style="whiteSpace=wrap;html=1;align=center;" parent="1" vertex="1">
                    <mxGeometry x="-310" y="1457" width="100" height="40" as="geometry"/>
                </mxCell>
                <mxCell id="209" value="" style="edgeStyle=orthogonalEdgeStyle;html=1;" parent="1" source="210" target="208" edge="1">
                    <mxGeometry relative="1" as="geometry"/>
                </mxCell>
                <mxCell id="210" value="Admin voert inloggegevens in" style="whiteSpace=wrap;html=1;align=center;fillColor=rgb(24, 20, 29);" parent="1" vertex="1">
                    <mxGeometry x="-310" y="1385" width="100" height="40" as="geometry"/>
                </mxCell>
                <mxCell id="211" value="" style="edgeStyle=orthogonalEdgeStyle;html=1;" parent="1" source="213" target="210" edge="1">
                    <mxGeometry relative="1" as="geometry"/>
                </mxCell>
                <mxCell id="212" value="" style="edgeStyle=orthogonalEdgeStyle;html=1;" parent="1" source="213" target="216" edge="1">
                    <mxGeometry relative="1" as="geometry"/>
                </mxCell>
                <mxCell id="213" value="Admin logt in" style="whiteSpace=wrap;html=1;align=center;fillColor=rgb(24, 20, 29);" parent="1" vertex="1">
                    <mxGeometry x="-450" y="1385" width="100" height="40" as="geometry"/>
                </mxCell>
                <mxCell id="325" value="" style="edgeStyle=none;html=1;" edge="1" parent="1" source="216" target="324">
                    <mxGeometry relative="1" as="geometry"/>
                </mxCell>
                <mxCell id="330" value="" style="edgeStyle=none;html=1;" edge="1" parent="1" source="216" target="328">
                    <mxGeometry relative="1" as="geometry"/>
                </mxCell>
                <mxCell id="216" value="Admin zoekt item" style="whiteSpace=wrap;html=1;align=center;fillColor=rgb(24, 20, 29);" parent="1" vertex="1">
                    <mxGeometry x="-450" y="1515" width="100" height="52" as="geometry"/>
                </mxCell>
                <mxCell id="323" value="" style="edgeStyle=none;html=1;" edge="1" parent="1" source="217" target="322">
                    <mxGeometry relative="1" as="geometry"/>
                </mxCell>
                <mxCell id="217" value="Item aangepast" style="whiteSpace=wrap;html=1;align=center;fillColor=rgb(24, 20, 29);" parent="1" vertex="1">
                    <mxGeometry x="-450" y="1850" width="100" height="40" as="geometry"/>
                </mxCell>
                <mxCell id="333" value="" style="edgeStyle=orthogonalEdgeStyle;rounded=0;html=1;" edge="1" parent="1" source="220" target="332">
                    <mxGeometry relative="1" as="geometry"/>
                </mxCell>
                <mxCell id="220" value="Admin past gegevens aan" style="whiteSpace=wrap;html=1;align=center;fillColor=rgb(24, 20, 29);" parent="1" vertex="1">
                    <mxGeometry x="-450" y="1688" width="100" height="52" as="geometry"/>
                </mxCell>
                <mxCell id="221" value="" style="endArrow=none;html=1;" parent="1" edge="1">
                    <mxGeometry width="50" height="50" relative="1" as="geometry">
                        <mxPoint x="-480" y="2195" as="sourcePoint"/>
                        <mxPoint x="-480" y="1105" as="targetPoint"/>
                    </mxGeometry>
                </mxCell>
                <mxCell id="222" value="Flowchart&lt;br&gt;(Item zoeken)" style="shape=note2;boundedLbl=1;whiteSpace=wrap;html=1;size=25;verticalAlign=top;align=center;" parent="1" vertex="1">
                    <mxGeometry x="-920" y="1120" width="120" height="85" as="geometry"/>
                </mxCell>
                <mxCell id="223" style="edgeStyle=none;html=1;exitX=0.5;exitY=1;exitDx=0;exitDy=0;exitPerimeter=0;entryX=0.5;entryY=0;entryDx=0;entryDy=0;" parent="1" source="224" target="226" edge="1">
                    <mxGeometry relative="1" as="geometry"/>
                </mxCell>
                <mxCell id="224" value="" style="strokeWidth=2;html=1;shape=mxgraph.flowchart.start_2;whiteSpace=wrap;" parent="1" vertex="1">
                    <mxGeometry x="-880" y="1225" width="40" height="40" as="geometry"/>
                </mxCell>
                <mxCell id="274" value="" style="edgeStyle=orthogonalEdgeStyle;rounded=0;html=1;startArrow=none;startFill=0;endArrow=classic;endFill=1;entryX=0.5;entryY=0;entryDx=0;entryDy=0;entryPerimeter=0;exitX=1;exitY=0.5;exitDx=0;exitDy=0;" parent="1" source="226" target="275" edge="1">
                    <mxGeometry relative="1" as="geometry">
                        <mxPoint x="-780" y="1425" as="targetPoint"/>
                    </mxGeometry>
                </mxCell>
                <mxCell id="226" value="Initialisatie" style="whiteSpace=wrap;html=1;align=center;" parent="1" vertex="1">
                    <mxGeometry x="-910" y="1305" width="100" height="40" as="geometry"/>
                </mxCell>
                <mxCell id="283" value="" style="edgeStyle=orthogonalEdgeStyle;rounded=0;html=1;startArrow=none;startFill=0;endArrow=classic;endFill=1;" parent="1" source="227" target="282" edge="1">
                    <mxGeometry relative="1" as="geometry"/>
                </mxCell>
                <mxCell id="306" style="edgeStyle=orthogonalEdgeStyle;rounded=0;html=1;exitX=0.75;exitY=0;exitDx=0;exitDy=0;startArrow=classic;startFill=1;endArrow=classic;endFill=1;" parent="1" source="227" target="305" edge="1">
                    <mxGeometry relative="1" as="geometry"/>
                </mxCell>
                <mxCell id="227" value="Account check" style="whiteSpace=wrap;html=1;align=center;" parent="1" vertex="1">
                    <mxGeometry x="-600" y="1410" width="100" height="40" as="geometry"/>
                </mxCell>
                <mxCell id="239" value="Flowchart&lt;br&gt;(Inloggen)" style="shape=note2;boundedLbl=1;whiteSpace=wrap;html=1;size=25;verticalAlign=top;align=center;" parent="1" vertex="1">
                    <mxGeometry x="-1380" y="1120" width="120" height="85" as="geometry"/>
                </mxCell>
                <mxCell id="240" style="edgeStyle=none;html=1;exitX=0.5;exitY=1;exitDx=0;exitDy=0;exitPerimeter=0;entryX=0.5;entryY=0;entryDx=0;entryDy=0;" parent="1" source="241" target="242" edge="1">
                    <mxGeometry relative="1" as="geometry"/>
                </mxCell>
                <mxCell id="241" value="" style="strokeWidth=2;html=1;shape=mxgraph.flowchart.start_2;whiteSpace=wrap;" parent="1" vertex="1">
                    <mxGeometry x="-1340" y="1225" width="40" height="40" as="geometry"/>
                </mxCell>
                <mxCell id="267" value="" style="edgeStyle=orthogonalEdgeStyle;rounded=0;html=1;startArrow=none;startFill=0;endArrow=classic;endFill=1;" parent="1" source="242" target="266" edge="1">
                    <mxGeometry relative="1" as="geometry"/>
                </mxCell>
                <mxCell id="242" value="Initialisatie" style="whiteSpace=wrap;html=1;align=center;" parent="1" vertex="1">
                    <mxGeometry x="-1370" y="1305" width="100" height="40" as="geometry"/>
                </mxCell>
                <mxCell id="270" value="" style="edgeStyle=orthogonalEdgeStyle;rounded=0;html=1;startArrow=classic;startFill=1;endArrow=classic;endFill=1;" parent="1" source="243" target="269" edge="1">
                    <mxGeometry relative="1" as="geometry"/>
                </mxCell>
                <mxCell id="243" value="Account check" style="whiteSpace=wrap;html=1;align=center;" parent="1" vertex="1">
                    <mxGeometry x="-1230" y="1400" width="100" height="40" as="geometry"/>
                </mxCell>
                <mxCell id="244" value="Flowchart&lt;br&gt;(Registreren)" style="shape=note2;boundedLbl=1;whiteSpace=wrap;html=1;size=25;verticalAlign=top;align=center;" parent="1" vertex="1">
                    <mxGeometry x="-1690" y="1120" width="120" height="85" as="geometry"/>
                </mxCell>
                <mxCell id="245" style="edgeStyle=none;html=1;exitX=0.5;exitY=1;exitDx=0;exitDy=0;exitPerimeter=0;entryX=0.5;entryY=0;entryDx=0;entryDy=0;" parent="1" source="246" target="247" edge="1">
                    <mxGeometry relative="1" as="geometry"/>
                </mxCell>
                <mxCell id="246" value="" style="strokeWidth=2;html=1;shape=mxgraph.flowchart.start_2;whiteSpace=wrap;" parent="1" vertex="1">
                    <mxGeometry x="-1650" y="1225" width="40" height="40" as="geometry"/>
                </mxCell>
                <mxCell id="252" value="" style="edgeStyle=none;html=1;" parent="1" source="247" target="251" edge="1">
                    <mxGeometry relative="1" as="geometry"/>
                </mxCell>
                <mxCell id="247" value="Initialisatie" style="whiteSpace=wrap;html=1;align=center;" parent="1" vertex="1">
                    <mxGeometry x="-1680" y="1305" width="100" height="40" as="geometry"/>
                </mxCell>
                <mxCell id="261" style="edgeStyle=orthogonalEdgeStyle;rounded=0;html=1;exitX=0.5;exitY=1;exitDx=0;exitDy=0;entryX=0.5;entryY=0;entryDx=0;entryDy=0;startArrow=none;startFill=0;" parent="1" source="248" target="259" edge="1">
                    <mxGeometry relative="1" as="geometry"/>
                </mxCell>
                <mxCell id="248" value="Email check" style="whiteSpace=wrap;html=1;align=center;" parent="1" vertex="1">
                    <mxGeometry x="-1540" y="1400" width="100" height="40" as="geometry"/>
                </mxCell>
                <mxCell id="249" value="" style="endArrow=none;html=1;" parent="1" edge="1">
                    <mxGeometry width="50" height="50" relative="1" as="geometry">
                        <mxPoint x="-1400" y="2190" as="sourcePoint"/>
                        <mxPoint x="-1400" y="1100" as="targetPoint"/>
                    </mxGeometry>
                </mxCell>
                <mxCell id="250" value="" style="endArrow=none;html=1;" parent="1" edge="1">
                    <mxGeometry width="50" height="50" relative="1" as="geometry">
                        <mxPoint x="-930" y="2190" as="sourcePoint"/>
                        <mxPoint x="-930" y="1100" as="targetPoint"/>
                    </mxGeometry>
                </mxCell>
                <mxCell id="254" value="" style="edgeStyle=none;html=1;startArrow=classic;startFill=1;" parent="1" source="251" target="248" edge="1">
                    <mxGeometry relative="1" as="geometry"/>
                </mxCell>
                <mxCell id="265" value="" style="edgeStyle=orthogonalEdgeStyle;rounded=0;html=1;startArrow=none;startFill=0;endArrow=classic;endFill=1;" parent="1" source="251" target="264" edge="1">
                    <mxGeometry relative="1" as="geometry"/>
                </mxCell>
                <mxCell id="251" value="Gebruiker voert gegevens in" style="whiteSpace=wrap;html=1;align=center;" parent="1" vertex="1">
                    <mxGeometry x="-1680" y="1400" width="100" height="40" as="geometry"/>
                </mxCell>
                <mxCell id="257" value="" style="edgeStyle=orthogonalEdgeStyle;html=1;startArrow=classic;startFill=1;rounded=0;" parent="1" source="253" target="248" edge="1">
                    <mxGeometry relative="1" as="geometry">
                        <Array as="points">
                            <mxPoint x="-1450" y="1450"/>
                            <mxPoint x="-1450" y="1450"/>
                        </Array>
                    </mxGeometry>
                </mxCell>
                <mxCell id="263" style="edgeStyle=orthogonalEdgeStyle;rounded=0;html=1;exitX=0.667;exitY=1.033;exitDx=0;exitDy=0;exitPerimeter=0;entryX=1;entryY=0;entryDx=0;entryDy=0;startArrow=classic;startFill=1;endArrow=none;endFill=0;" parent="1" edge="1">
                    <mxGeometry relative="1" as="geometry">
                        <mxPoint x="-1450.98" y="1551.98" as="sourcePoint"/>
                        <mxPoint x="-1451" y="1590" as="targetPoint"/>
                    </mxGeometry>
                </mxCell>
                <mxCell id="253" value="DB" style="strokeWidth=2;html=1;shape=mxgraph.flowchart.database;whiteSpace=wrap;" parent="1" vertex="1">
                    <mxGeometry x="-1480" y="1490" width="60" height="60" as="geometry"/>
                </mxCell>
                <mxCell id="259" value="Voeg nieuwe rij toe in database" style="whiteSpace=wrap;html=1;align=center;" parent="1" vertex="1">
                    <mxGeometry x="-1540" y="1590" width="100" height="40" as="geometry"/>
                </mxCell>
                <mxCell id="358" value="" style="edgeStyle=orthogonalEdgeStyle;rounded=0;html=1;startArrow=none;startFill=0;" edge="1" parent="1" source="264" target="357">
                    <mxGeometry relative="1" as="geometry"/>
                </mxCell>
                <mxCell id="264" value="Gebruikers account toegevoegd" style="whiteSpace=wrap;html=1;align=center;" parent="1" vertex="1">
                    <mxGeometry x="-1680" y="1640" width="100" height="50" as="geometry"/>
                </mxCell>
                <mxCell id="268" value="" style="edgeStyle=orthogonalEdgeStyle;rounded=0;html=1;startArrow=none;startFill=0;endArrow=classic;endFill=1;" parent="1" source="266" target="243" edge="1">
                    <mxGeometry relative="1" as="geometry"/>
                </mxCell>
                <mxCell id="272" value="" style="edgeStyle=orthogonalEdgeStyle;rounded=0;html=1;startArrow=none;startFill=0;endArrow=classic;endFill=1;" parent="1" source="266" target="271" edge="1">
                    <mxGeometry relative="1" as="geometry"/>
                </mxCell>
                <mxCell id="266" value="Gebruiker voert inloggegevens in" style="whiteSpace=wrap;html=1;align=center;" parent="1" vertex="1">
                    <mxGeometry x="-1370" y="1400" width="100" height="40" as="geometry"/>
                </mxCell>
                <mxCell id="269" value="DB" style="strokeWidth=2;html=1;shape=mxgraph.flowchart.database;whiteSpace=wrap;" parent="1" vertex="1">
                    <mxGeometry x="-1080" y="1390" width="60" height="60" as="geometry"/>
                </mxCell>
                <mxCell id="319" value="" style="edgeStyle=orthogonalEdgeStyle;rounded=0;html=1;startArrow=none;startFill=0;endArrow=classic;endFill=1;" parent="1" source="271" target="318" edge="1">
                    <mxGeometry relative="1" as="geometry"/>
                </mxCell>
                <mxCell id="271" value="Gebruiker is ingelogd" style="whiteSpace=wrap;html=1;align=center;" parent="1" vertex="1">
                    <mxGeometry x="-1370" y="1520" width="100" height="40" as="geometry"/>
                </mxCell>
                <mxCell id="300" style="edgeStyle=orthogonalEdgeStyle;rounded=0;html=1;exitX=1;exitY=0.5;exitDx=0;exitDy=0;exitPerimeter=0;entryX=0.5;entryY=0;entryDx=0;entryDy=0;startArrow=none;startFill=0;endArrow=classic;endFill=1;" parent="1" source="275" target="227" edge="1">
                    <mxGeometry relative="1" as="geometry"/>
                </mxCell>
                <mxCell id="301" value="Ja" style="edgeLabel;html=1;align=center;verticalAlign=middle;resizable=0;points=[];" parent="300" vertex="1" connectable="0">
                    <mxGeometry x="0.1429" y="2" relative="1" as="geometry">
                        <mxPoint as="offset"/>
                    </mxGeometry>
                </mxCell>
                <mxCell id="302" value="" style="edgeStyle=orthogonalEdgeStyle;rounded=0;html=1;startArrow=none;startFill=0;endArrow=classic;endFill=1;" parent="1" source="275" target="284" edge="1">
                    <mxGeometry relative="1" as="geometry"/>
                </mxCell>
                <mxCell id="304" value="Nee" style="edgeLabel;html=1;align=center;verticalAlign=middle;resizable=0;points=[];" parent="302" vertex="1" connectable="0">
                    <mxGeometry x="-0.1714" y="-3" relative="1" as="geometry">
                        <mxPoint as="offset"/>
                    </mxGeometry>
                </mxCell>
                <mxCell id="275" value="Is gebruiker ingelogd?" style="strokeWidth=2;html=1;shape=mxgraph.flowchart.decision;whiteSpace=wrap;" parent="1" vertex="1">
                    <mxGeometry x="-750" y="1350" width="150" height="80" as="geometry"/>
                </mxCell>
                <mxCell id="303" style="edgeStyle=orthogonalEdgeStyle;rounded=0;html=1;exitX=0.5;exitY=1;exitDx=0;exitDy=0;entryX=1;entryY=0.5;entryDx=0;entryDy=0;startArrow=none;startFill=0;endArrow=classic;endFill=1;" parent="1" source="282" target="284" edge="1">
                    <mxGeometry relative="1" as="geometry"/>
                </mxCell>
                <mxCell id="282" value="Pas opgeslagen zoekcriteria toe" style="whiteSpace=wrap;html=1;align=center;" parent="1" vertex="1">
                    <mxGeometry x="-600" y="1480" width="100" height="40" as="geometry"/>
                </mxCell>
                <mxCell id="307" value="" style="edgeStyle=orthogonalEdgeStyle;rounded=0;html=1;startArrow=none;startFill=0;endArrow=classic;endFill=1;" parent="1" source="284" target="286" edge="1">
                    <mxGeometry relative="1" as="geometry"/>
                </mxCell>
                <mxCell id="284" value="Gebruiker voert zoekcriteria in" style="whiteSpace=wrap;html=1;align=center;" parent="1" vertex="1">
                    <mxGeometry x="-725" y="1570" width="100" height="40" as="geometry"/>
                </mxCell>
                <mxCell id="291" value="" style="edgeStyle=orthogonalEdgeStyle;rounded=0;html=1;startArrow=none;startFill=0;endArrow=classic;endFill=1;" parent="1" source="286" target="290" edge="1">
                    <mxGeometry relative="1" as="geometry"/>
                </mxCell>
                <mxCell id="286" value="Gebruiker drukt op zoeken" style="whiteSpace=wrap;html=1;align=center;" parent="1" vertex="1">
                    <mxGeometry x="-725" y="1660" width="100" height="40" as="geometry"/>
                </mxCell>
                <mxCell id="293" value="" style="edgeStyle=orthogonalEdgeStyle;rounded=0;html=1;startArrow=none;startFill=0;endArrow=classic;endFill=1;" parent="1" source="290" target="292" edge="1">
                    <mxGeometry relative="1" as="geometry"/>
                </mxCell>
                <mxCell id="290" value="Search query naar Database" style="whiteSpace=wrap;html=1;align=center;" parent="1" vertex="1">
                    <mxGeometry x="-600" y="1710" width="100" height="40" as="geometry"/>
                </mxCell>
                <mxCell id="309" value="" style="edgeStyle=orthogonalEdgeStyle;rounded=0;html=1;startArrow=none;startFill=0;endArrow=classic;endFill=1;" parent="1" source="292" target="308" edge="1">
                    <mxGeometry relative="1" as="geometry"/>
                </mxCell>
                <mxCell id="292" value="DB" style="strokeWidth=2;html=1;shape=mxgraph.flowchart.database;whiteSpace=wrap;" parent="1" vertex="1">
                    <mxGeometry x="-580" y="1790" width="60" height="60" as="geometry"/>
                </mxCell>
                <mxCell id="315" value="" style="edgeStyle=orthogonalEdgeStyle;rounded=0;html=1;startArrow=none;startFill=0;endArrow=classic;endFill=1;" parent="1" source="294" edge="1">
                    <mxGeometry relative="1" as="geometry">
                        <mxPoint x="-860" y="1990" as="targetPoint"/>
                    </mxGeometry>
                </mxCell>
                <mxCell id="294" value="Items worden getoont" style="whiteSpace=wrap;html=1;align=center;" parent="1" vertex="1">
                    <mxGeometry x="-910" y="1890" width="100" height="40" as="geometry"/>
                </mxCell>
                <mxCell id="305" value="DB" style="strokeWidth=2;html=1;shape=mxgraph.flowchart.database;whiteSpace=wrap;" parent="1" vertex="1">
                    <mxGeometry x="-555" y="1285" width="60" height="60" as="geometry"/>
                </mxCell>
                <mxCell id="310" value="" style="edgeStyle=orthogonalEdgeStyle;rounded=0;html=1;startArrow=none;startFill=0;endArrow=classic;endFill=1;" parent="1" source="308" target="294" edge="1">
                    <mxGeometry relative="1" as="geometry"/>
                </mxCell>
                <mxCell id="308" value="Itmes ophalen" style="whiteSpace=wrap;html=1;align=center;" parent="1" vertex="1">
                    <mxGeometry x="-600" y="1890" width="100" height="40" as="geometry"/>
                </mxCell>
                <mxCell id="316" value="" style="strokeWidth=2;html=1;shape=mxgraph.flowchart.start_2;whiteSpace=wrap;" parent="1" vertex="1">
                    <mxGeometry x="-880" y="1990" width="40" height="40" as="geometry"/>
                </mxCell>
                <mxCell id="318" value="" style="strokeWidth=2;html=1;shape=mxgraph.flowchart.start_2;whiteSpace=wrap;" parent="1" vertex="1">
                    <mxGeometry x="-1340" y="1590" width="40" height="40" as="geometry"/>
                </mxCell>
                <mxCell id="320" value="Gegevens kloppen?" style="strokeWidth=2;html=1;shape=mxgraph.flowchart.decision;whiteSpace=wrap;" parent="1" vertex="1">
                    <mxGeometry x="-1230" y="1480" width="125" height="80" as="geometry"/>
                </mxCell>
                <mxCell id="322" value="" style="strokeWidth=2;html=1;shape=mxgraph.flowchart.start_2;whiteSpace=wrap;" vertex="1" parent="1">
                    <mxGeometry x="-420" y="1926" width="40" height="40" as="geometry"/>
                </mxCell>
                <mxCell id="327" value="" style="edgeStyle=orthogonalEdgeStyle;html=1;rounded=0;" edge="1" parent="1" source="324" target="326">
                    <mxGeometry relative="1" as="geometry"/>
                </mxCell>
                <mxCell id="324" value="Search query uitgevoerd op database" style="whiteSpace=wrap;html=1;align=center;fillColor=rgb(24, 20, 29);" vertex="1" parent="1">
                    <mxGeometry x="-310" y="1514" width="100" height="52" as="geometry"/>
                </mxCell>
                <mxCell id="331" style="edgeStyle=orthogonalEdgeStyle;rounded=0;html=1;exitX=0;exitY=0.5;exitDx=0;exitDy=0;exitPerimeter=0;entryX=1;entryY=0.5;entryDx=0;entryDy=0;" edge="1" parent="1" source="326" target="328">
                    <mxGeometry relative="1" as="geometry"/>
                </mxCell>
                <mxCell id="326" value="DB" style="strokeWidth=2;html=1;shape=mxgraph.flowchart.database;whiteSpace=wrap;" vertex="1" parent="1">
                    <mxGeometry x="-160" y="1593.5" width="60" height="60" as="geometry"/>
                </mxCell>
                <mxCell id="329" value="" style="edgeStyle=none;html=1;" edge="1" parent="1" source="328" target="220">
                    <mxGeometry relative="1" as="geometry"/>
                </mxCell>
                <mxCell id="328" value="Item wordt getoont" style="whiteSpace=wrap;html=1;align=center;fillColor=rgb(24, 20, 29);" vertex="1" parent="1">
                    <mxGeometry x="-450" y="1598" width="100" height="52" as="geometry"/>
                </mxCell>
                <mxCell id="334" style="edgeStyle=orthogonalEdgeStyle;rounded=0;html=1;exitX=1;exitY=0.5;exitDx=0;exitDy=0;entryX=0.2;entryY=0.975;entryDx=0;entryDy=0;entryPerimeter=0;" edge="1" parent="1" source="332" target="326">
                    <mxGeometry relative="1" as="geometry"/>
                </mxCell>
                <mxCell id="340" value="" style="edgeStyle=orthogonalEdgeStyle;rounded=0;html=1;" edge="1" parent="1" source="332" target="339">
                    <mxGeometry relative="1" as="geometry"/>
                </mxCell>
                <mxCell id="332" value="Database velden updaten" style="whiteSpace=wrap;html=1;align=center;fillColor=rgb(24, 20, 29);" vertex="1" parent="1">
                    <mxGeometry x="-310" y="1688" width="100" height="52" as="geometry"/>
                </mxCell>
                <mxCell id="344" style="edgeStyle=orthogonalEdgeStyle;rounded=0;html=1;exitX=0.5;exitY=1;exitDx=0;exitDy=0;entryX=0.5;entryY=0;entryDx=0;entryDy=0;startArrow=none;startFill=0;" edge="1" parent="1" source="335" target="217">
                    <mxGeometry relative="1" as="geometry"/>
                </mxCell>
                <mxCell id="335" value="Geüpdatet Item tonen" style="whiteSpace=wrap;html=1;align=center;fillColor=rgb(24, 20, 29);" vertex="1" parent="1">
                    <mxGeometry x="-450" y="1780" width="100" height="40" as="geometry"/>
                </mxCell>
                <mxCell id="341" value="" style="edgeStyle=orthogonalEdgeStyle;rounded=0;html=1;" edge="1" parent="1" source="339" target="335">
                    <mxGeometry relative="1" as="geometry"/>
                </mxCell>
                <mxCell id="342" style="edgeStyle=orthogonalEdgeStyle;rounded=0;html=1;exitX=1;exitY=0.5;exitDx=0;exitDy=0;entryX=0.5;entryY=1;entryDx=0;entryDy=0;entryPerimeter=0;startArrow=classic;startFill=1;" edge="1" parent="1" source="339" target="326">
                    <mxGeometry relative="1" as="geometry"/>
                </mxCell>
                <mxCell id="339" value="Geüpdatet item ophalen" style="whiteSpace=wrap;html=1;align=center;fillColor=rgb(24, 20, 29);" vertex="1" parent="1">
                    <mxGeometry x="-310" y="1774" width="100" height="52" as="geometry"/>
                </mxCell>
                <mxCell id="346" value="" style="strokeWidth=2;html=1;shape=mxgraph.flowchart.start_2;whiteSpace=wrap;" vertex="1" parent="1">
                    <mxGeometry x="-420" y="680" width="40" height="40" as="geometry"/>
                </mxCell>
                <mxCell id="349" value="" style="strokeWidth=2;html=1;shape=mxgraph.flowchart.start_2;whiteSpace=wrap;" vertex="1" parent="1">
                    <mxGeometry x="-710" y="690" width="40" height="40" as="geometry"/>
                </mxCell>
                <mxCell id="357" value="" style="strokeWidth=2;html=1;shape=mxgraph.flowchart.start_2;whiteSpace=wrap;" vertex="1" parent="1">
                    <mxGeometry x="-1650" y="1734" width="40" height="40" as="geometry"/>
                </mxCell>
            </root>
        </mxGraphModel>
    </diagram>
</mxfile>